<svg width="248" height="63" viewBox="0 0 248 63" fill="none" xmlns="http://www.w3.org/2000/svg">
<path d="M0.849998 0H42.7234V20.9367H21.7867L0.849998 0Z" fill="#F36849"/>
<path d="M42.7234 41.8733H21.7867V62.81L0.849998 41.8733V20.9366H21.7867L42.7234 41.8733Z" fill="white"/>
<path d="M70.26 20.42L69.87 23.09H59.7V29.15H68.91V31.82H59.7V38.33H70.05L70.47 41H56.76V20.42H70.26ZM86.5432 25.67L81.1732 33.05L86.8132 41H83.4532L79.4632 35.39L75.4132 41H72.3232L77.9632 33.23L72.6232 25.67H75.9832L79.6732 30.89L83.4532 25.67H86.5432ZM97.0598 25.37C98.9998 25.37 100.52 26.08 101.62 27.5C102.72 28.92 103.27 30.87 103.27 33.35V33.68C103.27 36.04 102.72 37.9 101.62 39.26C100.54 40.62 99.0198 41.3 97.0598 41.3C95.1798 41.3 93.7098 40.55 92.6498 39.05V46.43H89.8298V25.67H91.9298C92.0698 26.31 92.1998 27.01 92.3198 27.77C93.4598 26.17 95.0398 25.37 97.0598 25.37ZM96.5498 27.62C95.1898 27.62 94.1898 28.09 93.5498 29.03C92.9298 29.97 92.6198 31.4 92.6198 33.32C92.6198 35.28 92.9398 36.73 93.5798 37.67C94.2398 38.59 95.2298 39.05 96.5498 39.05C97.8698 39.05 98.8498 38.58 99.4898 37.64C100.13 36.7 100.45 35.26 100.45 33.32C100.45 31.36 100.12 29.92 99.4598 29C98.8198 28.08 97.8498 27.62 96.5498 27.62ZM114.22 25.37C115.64 25.37 116.75 25.83 117.55 26.75C118.35 27.65 118.75 28.79 118.75 30.17L118.66 31.31H116.17V30.65C116.17 30.05 116.02 29.52 115.72 29.06C115.42 28.6 115.04 28.25 114.58 28.01C114.12 27.75 113.66 27.62 113.2 27.62C112.24 27.62 111.49 28 110.95 28.76C110.41 29.52 110.14 30.55 110.14 31.85V41H107.32V25.67H109.33L109.75 27.95C109.87 27.55 110.14 27.15 110.56 26.75C110.98 26.35 111.5 26.02 112.12 25.76C112.76 25.5 113.46 25.37 114.22 25.37ZM128.177 25.37C129.437 25.37 130.547 25.64 131.507 26.18C132.487 26.7 133.247 27.45 133.787 28.43C134.327 29.41 134.597 30.55 134.597 31.85V33.98H123.887C123.927 35.6 124.307 36.85 125.027 37.73C125.747 38.61 126.817 39.05 128.237 39.05C129.497 39.05 130.427 38.68 131.027 37.94C131.627 37.2 131.927 36.32 131.927 35.3H134.597C134.597 36.5 134.317 37.55 133.757 38.45C133.217 39.35 132.457 40.05 131.477 40.55C130.517 41.05 129.417 41.3 128.177 41.3H128.057C125.897 41.3 124.187 40.61 122.927 39.23C121.687 37.83 121.067 35.97 121.067 33.65V33.05C121.067 31.53 121.347 30.19 121.907 29.03C122.467 27.87 123.267 26.97 124.307 26.33C125.347 25.69 126.567 25.37 127.967 25.37H128.177ZM128.027 27.62C126.887 27.62 125.957 27.97 125.237 28.67C124.537 29.37 124.107 30.41 123.947 31.79H131.807V31.43C131.807 30.29 131.457 29.37 130.757 28.67C130.077 27.97 129.167 27.62 128.027 27.62ZM144.547 25.37C145.687 25.37 146.697 25.55 147.577 25.91C148.477 26.27 149.167 26.77 149.647 27.41C150.147 28.05 150.397 28.76 150.397 29.54L150.367 30.08H147.577V29.81C147.577 28.35 146.447 27.62 144.187 27.62C141.947 27.62 140.827 28.29 140.827 29.63C140.827 30.25 141.147 30.71 141.787 31.01C142.427 31.29 143.407 31.56 144.727 31.82C145.987 32.08 147.017 32.35 147.817 32.63C148.637 32.91 149.327 33.35 149.887 33.95C150.467 34.55 150.757 35.36 150.757 36.38C150.757 38.02 150.197 39.25 149.077 40.07C147.957 40.89 146.347 41.3 144.247 41.3H143.797C142.537 41.3 141.437 41.11 140.497 40.73C139.557 40.33 138.827 39.8 138.307 39.14C137.807 38.46 137.567 37.7 137.587 36.86V36.2H140.377V36.5C140.377 38.2 141.807 39.05 144.667 39.05C145.507 39.05 146.257 38.86 146.917 38.48C147.597 38.1 147.937 37.58 147.937 36.92C147.937 36.36 147.747 35.92 147.367 35.6C147.007 35.28 146.557 35.04 146.017 34.88C145.477 34.72 144.727 34.56 143.767 34.4C142.527 34.16 141.527 33.92 140.767 33.68C140.007 33.42 139.357 32.99 138.817 32.39C138.277 31.79 138.007 30.97 138.007 29.93C138.007 28.51 138.567 27.4 139.687 26.6C140.807 25.78 142.337 25.37 144.277 25.37H144.547ZM160.572 25.37C161.712 25.37 162.722 25.55 163.602 25.91C164.502 26.27 165.192 26.77 165.672 27.41C166.172 28.05 166.422 28.76 166.422 29.54L166.392 30.08H163.602V29.81C163.602 28.35 162.472 27.62 160.212 27.62C157.972 27.62 156.852 28.29 156.852 29.63C156.852 30.25 157.172 30.71 157.812 31.01C158.452 31.29 159.432 31.56 160.752 31.82C162.012 32.08 163.042 32.35 163.842 32.63C164.662 32.91 165.352 33.35 165.912 33.95C166.492 34.55 166.782 35.36 166.782 36.38C166.782 38.02 166.222 39.25 165.102 40.07C163.982 40.89 162.372 41.3 160.272 41.3H159.822C158.562 41.3 157.462 41.11 156.522 40.73C155.582 40.33 154.852 39.8 154.332 39.14C153.832 38.46 153.592 37.7 153.612 36.86V36.2H156.402V36.5C156.402 38.2 157.832 39.05 160.692 39.05C161.532 39.05 162.282 38.86 162.942 38.48C163.622 38.1 163.962 37.58 163.962 36.92C163.962 36.36 163.772 35.92 163.392 35.6C163.032 35.28 162.582 35.04 162.042 34.88C161.502 34.72 160.752 34.56 159.792 34.4C158.552 34.16 157.552 33.92 156.792 33.68C156.032 33.42 155.382 32.99 154.842 32.39C154.302 31.79 154.032 30.97 154.032 29.93C154.032 28.51 154.592 27.4 155.712 26.6C156.832 25.78 158.362 25.37 160.302 25.37H160.572ZM195.348 20.42L189.318 41H186.318L182.118 26.12H181.908L177.558 41H174.558L168.678 20.42H171.828L176.178 35.93H176.358L180.738 20.42H183.588L187.938 35.93H188.118L192.498 20.42H195.348ZM204.258 25.37C206.278 25.37 207.778 25.77 208.758 26.57C209.758 27.37 210.258 28.53 210.258 30.05V38C210.258 38.36 210.338 38.63 210.498 38.81C210.658 38.97 210.858 39.05 211.098 39.05C211.558 39.05 212.018 38.91 212.478 38.63V40.7C211.798 41.1 211.028 41.3 210.168 41.3C209.308 41.3 208.668 41.06 208.248 40.58C207.828 40.08 207.598 39.4 207.558 38.54C206.318 40.38 204.528 41.3 202.188 41.3C200.508 41.3 199.248 40.94 198.408 40.22C197.588 39.48 197.178 38.32 197.178 36.74C197.178 35.5 197.498 34.53 198.138 33.83C198.778 33.11 199.838 32.59 201.318 32.27C202.798 31.95 204.838 31.79 207.438 31.79V30.38C207.438 29.36 207.138 28.65 206.538 28.25C205.938 27.83 205.068 27.62 203.928 27.62C202.848 27.62 202.008 27.83 201.408 28.25C200.808 28.67 200.508 29.26 200.508 30.02V30.38H197.748C197.708 30.1 197.688 29.77 197.688 29.39C197.688 28.69 197.968 28.03 198.528 27.41C199.088 26.79 199.848 26.3 200.808 25.94C201.768 25.56 202.828 25.37 203.988 25.37H204.258ZM207.438 33.98C205.338 33.98 203.748 34.09 202.668 34.31C201.608 34.51 200.898 34.82 200.538 35.24C200.178 35.66 199.998 36.24 199.998 36.98C199.998 38.36 201.048 39.05 203.148 39.05C203.888 39.05 204.588 38.87 205.248 38.51C205.908 38.13 206.438 37.6 206.838 36.92C207.238 36.24 207.438 35.46 207.438 34.58V33.98ZM229.817 22.91C229.817 23.93 229.547 24.79 229.007 25.49C228.467 26.17 227.717 26.61 226.757 26.81L226.697 26.9C227.697 27.78 228.197 28.88 228.197 30.2C228.197 31.64 227.657 32.8 226.577 33.68C225.497 34.56 224.027 35 222.167 35H220.127C219.527 35 219.027 35.16 218.627 35.48C218.227 35.78 218.027 36.17 218.027 36.65C218.027 37.13 218.217 37.51 218.597 37.79C218.977 38.07 219.487 38.21 220.127 38.21H225.917C227.097 38.21 228.037 38.58 228.737 39.32C229.457 40.06 229.817 41 229.817 42.14C229.817 43.5 229.297 44.59 228.257 45.41C227.237 46.23 225.857 46.64 224.117 46.64H218.087C217.407 46.64 216.777 46.46 216.197 46.1C215.637 45.74 215.187 45.28 214.847 44.72C214.527 44.18 214.367 43.62 214.367 43.04C214.367 42.2 214.567 41.47 214.967 40.85C215.387 40.23 215.937 39.77 216.617 39.47C215.697 38.91 215.237 38.08 215.237 36.98C215.237 36.26 215.447 35.64 215.867 35.12C216.287 34.6 216.877 34.21 217.637 33.95C216.297 33.21 215.627 31.96 215.627 30.2C215.627 28.72 216.167 27.55 217.247 26.69C218.347 25.81 219.867 25.37 221.807 25.37H221.927C223.047 25.37 224.067 25.54 224.987 25.88C226.407 25.18 227.217 24.19 227.417 22.91H229.817ZM221.897 27.62C220.837 27.62 219.987 27.83 219.347 28.25C218.727 28.65 218.417 29.3 218.417 30.2C218.417 31.1 218.727 31.75 219.347 32.15C219.987 32.55 220.837 32.75 221.897 32.75C222.957 32.75 223.807 32.55 224.447 32.15C225.087 31.75 225.407 31.1 225.407 30.2C225.407 29.3 225.087 28.65 224.447 28.25C223.807 27.83 222.957 27.62 221.897 27.62ZM218.897 40.91C218.417 40.91 218.007 41.08 217.667 41.42C217.327 41.76 217.157 42.17 217.157 42.65C217.157 43.13 217.327 43.54 217.667 43.88C218.007 44.22 218.417 44.39 218.897 44.39H224.687C225.327 44.39 225.877 44.2 226.337 43.82C226.797 43.46 227.027 43.04 227.027 42.56C227.027 42.06 226.857 41.66 226.517 41.36C226.177 41.06 225.697 40.91 225.077 40.91H218.897ZM238.978 25.37C240.238 25.37 241.348 25.64 242.308 26.18C243.288 26.7 244.048 27.45 244.588 28.43C245.128 29.41 245.398 30.55 245.398 31.85V33.98H234.688C234.728 35.6 235.108 36.85 235.828 37.73C236.548 38.61 237.618 39.05 239.038 39.05C240.298 39.05 241.228 38.68 241.828 37.94C242.428 37.2 242.728 36.32 242.728 35.3H245.398C245.398 36.5 245.118 37.55 244.558 38.45C244.018 39.35 243.258 40.05 242.278 40.55C241.318 41.05 240.218 41.3 238.978 41.3H238.858C236.698 41.3 234.988 40.61 233.728 39.23C232.488 37.83 231.868 35.97 231.868 33.65V33.05C231.868 31.53 232.148 30.19 232.708 29.03C233.268 27.87 234.068 26.97 235.108 26.33C236.148 25.69 237.368 25.37 238.768 25.37H238.978ZM238.828 27.62C237.688 27.62 236.758 27.97 236.038 28.67C235.338 29.37 234.908 30.41 234.748 31.79H242.608V31.43C242.608 30.29 242.258 29.37 241.558 28.67C240.878 27.97 239.968 27.62 238.828 27.62Z" fill="white"/>
</svg>
